<svg xmlns="http://www.w3.org/2000/svg" viewBox="443 441 1170 1170" width="1170" height="1170" version="1.1" role="img" aria-label="Data Thaw">
<path d="M 1023.99 484.278 L 1144.76 696.271 C 1162.11 727.267 1179.81 758.072 1197.83 788.684 C 1205.78 802.225 1215.09 819.029 1223.51 831.904 C 1242.68 860.034 1262 894.662 1279.16 924.263 C 1284.29 933.116 1297.15 954.761 1300.94 963.399 C 1315.37 986.682 1327.69 1012.24 1341.71 1035.83 C 1344.17 1039.98 1347.48 1045.59 1349.56 1049.89 C 1391.6 1125.46 1401.33 1214.81 1376.56 1297.66 C 1349.6 1390.73 1283.13 1477.82 1197.95 1524.74 C 1170.52 1540.02 1141.01 1551.23 1110.36 1558.04 C 1025.21 1578.98 935.345 1567.92 857.809 1526.98 C 769.162 1479.76 702.902 1399.27 673.608 1303.19 C 647.593 1216.68 655.808 1130.96 698.638 1051.21 C 714.971 1024.56 732.024 991.836 747.343 964.205 C 752.983 952.671 765.22 932.751 771.927 921.191 C 789.56 890.825 807.44 860.602 825.565 830.527 C 868.83 758.845 908.43 687.825 949.817 615.172 L 997.164 532.038 C 1005.72 517.006 1016.24 499.454 1023.99 484.278 z" fill="rgb(245,158,11)"></path>
<path d="M 1023.99 484.278 L 1144.76 696.271 C 1162.11 727.267 1179.81 758.072 1197.83 788.684 C 1205.78 802.225 1215.09 819.029 1223.51 831.904 C 1242.68 860.034 1262 894.662 1279.16 924.263 C 1284.29 933.116 1297.15 954.761 1300.94 963.399 C 1258.65 1013.04 1205.36 1052.12 1145.3 1077.54 C 1132.69 1082.74 1118.15 1088.39 1104.88 1090.99 L 1047.42 988.794 C 1040.83 976.979 1030.83 960.927 1025.1 949.295 C 1009.51 972.929 992.801 1004.28 978.765 1029.32 C 968.564 1047.51 952.069 1074.28 943.451 1092.39 C 863.511 1066.34 803.257 1027.95 747.343 964.205 C 752.983 952.671 765.22 932.751 771.927 921.191 C 789.56 890.825 807.44 860.602 825.565 830.527 C 868.83 758.845 908.43 687.825 949.817 615.172 L 997.164 532.038 C 1005.72 517.006 1016.24 499.454 1023.99 484.278 z" fill="rgb(59,130,246)"></path>
<path d="M 825.565 830.527 C 830.456 839.245 840.276 848.979 847.658 855.634 C 877.805 882.725 913.749 902.561 952.74 913.626 C 1020.82 933.124 1093.85 924.793 1155.78 890.462 C 1179.28 877.327 1208.53 854.581 1223.51 831.904 C 1242.68 860.034 1262 894.662 1279.16 924.263 C 1284.29 933.116 1297.15 954.761 1300.94 963.399 C 1258.65 1013.04 1205.36 1052.12 1145.3 1077.54 C 1132.69 1082.74 1118.15 1088.39 1104.88 1090.99 L 1047.42 988.794 C 1040.83 976.979 1030.83 960.927 1025.1 949.295 C 1009.51 972.929 992.801 1004.28 978.765 1029.32 C 968.564 1047.51 952.069 1074.28 943.451 1092.39 C 863.511 1066.34 803.257 1027.95 747.343 964.205 C 752.983 952.671 765.22 932.751 771.927 921.191 C 789.56 890.825 807.44 860.602 825.565 830.527 z" fill="rgb(34,211,238)"></path>
<path d="M 747.343 964.205 C 803.257 1027.95 863.511 1066.34 943.451 1092.39 C 929.352 1117.87 914.875 1143.15 900.027 1168.2 C 868.319 1222.07 844.863 1253.36 863.088 1318.42 C 863.521 1319.93 863.936 1321.44 864.334 1322.95 C 861.386 1323.68 861.579 1323.58 859.471 1325.76 C 864.208 1396.49 883.365 1451.84 938.283 1500.22 C 975.191 1532.14 1021.13 1551.76 1069.71 1556.35 C 1083.33 1557.76 1096.67 1557.22 1110.36 1558.04 C 1025.21 1578.98 935.345 1567.92 857.809 1526.98 C 769.162 1479.76 702.902 1399.27 673.608 1303.19 C 647.593 1216.68 655.808 1130.96 698.638 1051.21 C 714.971 1024.56 732.024 991.836 747.343 964.205 z" fill="rgb(251,113,133)"></path>
<path d="M 943.451 1092.39 C 952.069 1074.28 968.564 1047.51 978.765 1029.32 C 992.801 1004.28 1009.51 972.929 1025.1 949.295 C 1030.83 960.927 1040.83 976.979 1047.42 988.794 L 1104.88 1090.99 C 1117.74 1114.55 1130.85 1137.96 1144.2 1161.23 C 1182.6 1227.79 1211.85 1265.88 1174.48 1342.29 C 1156.96 1367.23 1130.55 1391.39 1101.36 1401.43 C 1019.04 1429.74 898.912 1414.8 864.334 1322.95 C 863.936 1321.44 863.521 1319.93 863.088 1318.42 C 844.863 1253.36 868.319 1222.07 900.027 1168.2 C 914.875 1143.15 929.352 1117.87 943.451 1092.39 z" fill="rgb(255,255,255)"></path>
</svg>
